# xmcd
#
# Track frame offsets:
#	150
#	23832
#	33570
#	45175
#	57950
#	68582
#	86117
#	97667
#	108535
#	125127
#
# Disc length: 1855 seconds
#
# Revision: 2
# Processed by: cddbd v1.5.2PL0 Copyright (c) Steve Scherf et al.
# Submitted via: EZCDAudioConverter 6.0.7.1
#
DISCID=7b073d0a
DTITLE=Various Artist - Super Slab Hits
DYEAR=1997
DGENRE=Country
TTITLE0=Red Sovine - Teddy Bear
TTITLE1=Del Reeves - A Dime At A Time
TTITLE2=Willis Brothers - Give Me Forty Acres
TTITLE3=Claude King - Wolverton Mountain
TTITLE4=Dave Dudley - Six Days On The Road
TTITLE5=T H Music Festival - Convoy
TTITLE6=Nashville Harmonica - Counry Roads
TTITLE7=Warner Mack - Sittin' In An All Night Cafe
TTITLE8=Lonnie Irving - Pinball Machine
TTITLE9=Bill Doggett - Honky Tonk
EXTD=
EXTT0=
EXTT1=
EXTT2=
EXTT3=
EXTT4=
EXTT5=
EXTT6=
EXTT7=
EXTT8=
EXTT9=
PLAYORDER=
